<svg xmlns="http://www.w3.org/2000/svg" viewBox="0 0 512 512"><defs><style>.cls-1{fill:#eee;}</style></defs><g id="圖層_2" data-name="圖層 2"><g id="圖層_1-2" data-name="圖層 1"><path class="cls-1" d="M426.58,75.42H359.26a95.15,95.15,0,0,0-95,95v56.81H211a10,10,0,0,0-10,10v76.94a10,10,0,0,0,10,10h53.27V492H30a10,10,0,0,1-10-10V30A10,10,0,0,1,30,20H50A10,10,0,0,0,50,0H30A30,30,0,0,0,0,30V482a30,30,0,0,0,30,30H274.22a10,10,0,0,0,10-10V314.21a10,10,0,0,0-10-10H221V247.27h53.27a10,10,0,0,0,10-10V170.46a75.12,75.12,0,0,1,75-75h57.32v56.94H359.26a18.34,18.34,0,0,0-18.1,18.1v66.81a10,10,0,0,0,10,10h64l-7.49,56.94H351.16a10,10,0,0,0-10,10V502a10,10,0,0,0,10,10H382a10,10,0,0,0,0-20H361.16V324.21h55.3a10,10,0,0,0,9.91-8.69l10.13-76.95a10,10,0,0,0-9.92-11.3H361.16V172.36h65.42a10,10,0,0,0,10-10V85.42A10,10,0,0,0,426.58,75.42Z"/><path class="cls-1" d="M482,0H130a10,10,0,0,0,0,20H482a10,10,0,0,1,10,10V482a10,10,0,0,1-10,10H462a10,10,0,0,0,0,20h20a30,30,0,0,0,30-30V30A30,30,0,0,0,482,0Z"/><path class="cls-1" d="M422,492h0a10,10,0,1,0,10,10A10,10,0,0,0,422,492Z"/><path class="cls-1" d="M90,20A10,10,0,0,0,90,0h0a10,10,0,0,0,0,20Z"/></g></g></svg>