<svg xmlns="http://www.w3.org/2000/svg" viewBox="0 0 512 512"><defs><style>.cls-1{fill:#eee;}</style></defs><g id="圖層_2" data-name="圖層 2"><g id="圖層_1-2" data-name="圖層 1"><path class="cls-1" d="M382,0H236a10,10,0,0,0,0,20H382A110.12,110.12,0,0,1,492,130V382A110.12,110.12,0,0,1,382,492H130A110.12,110.12,0,0,1,20,382V130A110.12,110.12,0,0,1,130,20h26a10,10,0,0,0,0-20H130C58.32,0,0,58.32,0,130V382c0,71.68,58.32,130,130,130H382c71.68,0,130-58.32,130-130V130C512,58.32,453.68,0,382,0Z"/><path class="cls-1" d="M356,472h26a90.1,90.1,0,0,0,90-90V130a90.1,90.1,0,0,0-90-90H130a90.11,90.11,0,0,0-90,90V382a90.1,90.1,0,0,0,90,90H276a10,10,0,0,0,0-20H130a70.08,70.08,0,0,1-70-70V130a70.08,70.08,0,0,1,70-70H382a70.08,70.08,0,0,1,70,70V382a70.08,70.08,0,0,1-70,70H356a10,10,0,0,0,0,20Z"/><path class="cls-1" d="M366,256A110,110,0,1,0,256,366,110.13,110.13,0,0,0,366,256ZM256,346a90,90,0,1,1,90-90A90.1,90.1,0,0,1,256,346Z"/><path class="cls-1" d="M256,186a70,70,0,1,0,70,70A70.08,70.08,0,0,0,256,186Zm0,120a50,50,0,1,1,50-50A50.06,50.06,0,0,1,256,306Z"/><path class="cls-1" d="M422,130a40,40,0,1,0-40,40A40.05,40.05,0,0,0,422,130Zm-60,0a20,20,0,1,1,20,20A20,20,0,0,1,362,130Z"/><path class="cls-1" d="M196,20a10,10,0,0,0,0-20h0a10,10,0,0,0,0,20Z"/><path class="cls-1" d="M316,452a10,10,0,1,0,10,10,10,10,0,0,0-10-10Z"/></g></g></svg>