<svg xmlns="http://www.w3.org/2000/svg" viewBox="0 0 192.16 139.33"><defs><style>.cls-1{fill:#79840f;}</style></defs><g id="圖層_2" data-name="圖層 2"><g id="圖層_1-2" data-name="圖層 1"><path class="cls-1" d="M.4,24.24A318.14,318.14,0,0,0,24.93,87.53c3.93,7.61,7.92,15.17,12.29,22.54a39.87,39.87,0,0,0,10.36,9.5,65.47,65.47,0,0,0,14.93,8.9,92.62,92.62,0,0,0,18.75,6.79A81.81,81.81,0,0,0,99.62,139l10.59.31a28.15,28.15,0,0,0,15-4.23l3.42-4.47a13.09,13.09,0,0,0-3.17-11.81q-4.55-7.65-8.66-15.55l3.21,6.18A318.5,318.5,0,0,1,99.42,60q-2.34-7.27-4.32-14.67A20.37,20.37,0,0,0,88.84,36a42.09,42.09,0,0,0-11.6-9.43,82.34,82.34,0,0,0-16.82-8.27,92.42,92.42,0,0,0-19-6.12L29.49,10.21a54.52,54.52,0,0,0-19.31,1L3.86,14.14A8.86,8.86,0,0,0,.4,24.24Z"/><path class="cls-1" d="M144.55,121.7q15.39-19,29.8-38.74,4.14-5.67,8.19-11.4a30.5,30.5,0,0,0,7.71-15.77,30.12,30.12,0,0,0,1.06-17.72,32.82,32.82,0,0,0-7.24-16A36.18,36.18,0,0,0,171.38,9.14L160,3.38A56.26,56.26,0,0,0,133.58.46L121.22,3.6a47.74,47.74,0,0,0-19.58,13.88q-14.11,20-29.23,39.17-4.34,5.52-8.76,11A30.41,30.41,0,0,0,55.94,83.4a30.08,30.08,0,0,0-1.06,17.71,32.71,32.71,0,0,0,7.23,16A36.18,36.18,0,0,0,74.8,130l11.38,5.77a56.53,56.53,0,0,0,26.42,2.92L125,135.58a47.81,47.81,0,0,0,19.58-13.88Z"/></g></g></svg>