<svg xmlns="http://www.w3.org/2000/svg" viewBox="0 0 150.52 171.18"><defs><style>.cls-1{fill:#eeeeee;}</style></defs><g id="圖層_2" data-name="圖層 2"><g id="圖層_1-2" data-name="圖層 1"><path class="cls-1" d="M16.86,143q24.21.24,48.4.43,20.68.12,41.37.06,14.82,0,29.65-.12c.88,0,.12-1-.08-1.23a17.52,17.52,0,0,0-3.38-3A37.58,37.58,0,0,0,128,136c-1-.5-2.17-1.33-3.27-1.33q-24.19.13-48.4.14-20.68,0-41.37-.22L5.3,134.26c-.9,0-.11,1,.08,1.23a17.76,17.76,0,0,0,3.37,3,39,39,0,0,0,4.84,3.16A8.09,8.09,0,0,0,16.86,143Z"/><path class="cls-1" d="M21.71,42.85C20.77,58.18,18.07,73.33,15,88.36s-6.33,30.09-9.5,45.13L.06,159.28c-.28,1.33.5,2.92,1.2,4a13.1,13.1,0,0,0,4.22,4c1.74,1,6.38,2.91,7.08-.38q4.83-22.86,9.65-45.73c3.16-15,6.52-29.9,9-45a255.22,255.22,0,0,0,3-25.71c.21-3.32-2.69-6.39-5.42-7.94-1.33-.76-3-1.64-4.6-1.46-1,.12-2.4.56-2.48,1.84Z"/><path class="cls-1" d="M129.45,46.17a689.93,689.93,0,0,0,3.1,92q1.27,12.81,3,25.56c.15,1.07,2.11,2.24,2.86,2.65a16.16,16.16,0,0,0,5.5,1.79c1.81.24,6.44.68,6-2.26q-3.75-27.19-5.35-54.62l.05.86q-1.78-31-.75-62.13c.09-2.84-4.25-4.34-6.46-4.89a13.48,13.48,0,0,0-5.35-.51c-.78.13-2.65.43-2.68,1.51Z"/><path class="cls-1" d="M6.4,169.48q27.86,0,55.69.57c15.09.32,30.17.72,45.26.92q17.4.22,34.79.21a9.25,9.25,0,0,0,5.49-1.91,7.59,7.59,0,0,0,2.84-4.47c.47-3.72-2.36-6.46-6-6.46q-27.84,0-55.69-.58c-15.08-.32-30.17-.72-45.26-.91q-17.39-.22-34.78-.21a9.24,9.24,0,0,0-5.49,1.9A7.66,7.66,0,0,0,.37,163c-.46,3.72,2.36,6.47,6,6.47Z"/><path class="cls-1" d="M32,50.23c14.23-.27,28.46-.5,42.7-.45q8.66,0,17.31.2l4.34.1,2.13.05,1,0c.87,0-.15,0-.27,0h.68l9.71.28q13.19.42,26.39.89c.67,0,2.31.22,2.72-.67s-.79-2.06-1.28-2.5a16.82,16.82,0,0,0-4.53-2.85,14.6,14.6,0,0,0-5.12-1.55c-14.65-.5-29.3-1-44-1.35-12-.27-24-.31-36-.2q-13.29.12-26.58.38c-.85,0-1.65.49-1.48,1.42s1.78,2.25,2.53,2.76c2.76,1.92,6.27,3.52,9.7,3.46Z"/><path class="cls-1" d="M57.44,67.17a92.81,92.81,0,0,1,9-43,82.07,82.07,0,0,1,6-10.41L72,14.3a46.11,46.11,0,0,1,5.07-6.48A10.49,10.49,0,0,1,80,5.61c.15-.06,1.82-.46.82-.29a4,4,0,0,1,1.28-.15l-.69,0h.86c.64,0,1.28,0,1.92,0l1,0c1.14,0-.55,0-.64,0,.65,0,1.3.12,1.95.16-2.13-.14-1.34-.2-.82-.1,1.42.27-2-.45-.24-.06.92.2-1.74-.58-.43-.13,1.08.37-.38-.12-.36-.16s1.39.9.29.13c.22.15.44.3.65.47a10.6,10.6,0,0,1,2.39,2.71c3.28,4.8,5.66,10.39,7.87,15.74s4.15,11,5.87,16.56c2,6.55,3.75,13.18,5.42,19.83l-.16-.64c.63,2.52,1.24,5,1.85,7.55s4.9,3.19,7,3.53a17.12,17.12,0,0,0,5.34.29c.48-.08,2.64-.35,2.44-1.18-2.66-10.93-5.35-21.87-8.88-32.55-1.71-5.19-3.62-10.31-5.82-15.3-1.11-2.5-2.28-5-3.55-7.38A34.83,34.83,0,0,0,101.12,8C96.38,2.47,88.48.73,81.55.28,75.44-.11,68.13-.78,63.36,3.81c-3.62,3.48-6.47,8.13-9,12.46A86.26,86.26,0,0,0,48.1,30a93.85,93.85,0,0,0-5.43,34.55c0,1,1.17,1.58,1.89,2a17.27,17.27,0,0,0,5.1,1.58,17.12,17.12,0,0,0,5.34.29c.6-.09,2.47-.28,2.44-1.18Z"/><path class="cls-1" d="M47.53,63.6c-1.3-.23-1.71-.29-1.23-.19l.17,0-1.18-.33a5.12,5.12,0,0,1,.77.3L45.29,63A4.46,4.46,0,0,1,47,64.66l-.29-.48a4.3,4.3,0,0,1,.08,4.09l.25-.5a5.23,5.23,0,0,1-1.82,2l.74-.47a5.24,5.24,0,0,1-1,.49l1.16-.41-.23.07c-.63.2,1.34-.28,1.14-.25l-.24,0,1.54-.22c1.76-.1,2.33-.14,1.68-.12s2.36,0,1.63,0A13.55,13.55,0,0,0,53,69c-.55-.06,1.7.31,1.16.18l-.29-.07,1.18.32a4.79,4.79,0,0,1-.79-.31l.77.41a3.32,3.32,0,0,1-1.27-1.17l.28.48a3.36,3.36,0,0,1-.18-3.18l-.25.5a2.59,2.59,0,0,1,.53-.7c.68-.66-.32-1.18-.81-1.38a8.13,8.13,0,0,0-1.95-.45,15.63,15.63,0,0,0-2.56-.24,27.2,27.2,0,0,0-5.77.39c-1.1.22-2.56.41-3.4,1.22a3.61,3.61,0,0,0-.63,4.33,4.49,4.49,0,0,0,.9,1.22,6.76,6.76,0,0,0,1.68,1,9.81,9.81,0,0,0,2.11.62,29.09,29.09,0,0,0,6.18.43,23.61,23.61,0,0,0,8.24-1.5,7.3,7.3,0,0,0,2.57-1.75,5.23,5.23,0,0,0,1.35-4.79,5.51,5.51,0,0,0-1.6-2.52c-1.5-1.31-3.61-1.64-5.5-1.9a21.78,21.78,0,0,0-2.8-.12,23,23,0,0,0-3,.14,15.53,15.53,0,0,0-2.53.42,8.43,8.43,0,0,0-1.91.58c-.52.29-1.44.79-.71,1.44l.77.41a11.48,11.48,0,0,0,2.71.57Z"/><path class="cls-1" d="M112.53,65.6c-1.3-.23-1.71-.29-1.23-.19l.17,0-1.18-.33a5.12,5.12,0,0,1,.77.3l-.77-.41A4.46,4.46,0,0,1,112,66.66l-.29-.48a4.3,4.3,0,0,1,.08,4.09l.25-.5a5.23,5.23,0,0,1-1.82,2l.74-.47a5.24,5.24,0,0,1-1,.49l1.16-.41-.23.07c-.63.2,1.34-.28,1.14-.25l-.24,0,1.54-.22c1.76-.1,2.33-.14,1.68-.12s2.36,0,1.63,0A13.55,13.55,0,0,0,118,71c-.55-.06,1.7.31,1.16.18l-.29-.07,1.18.32a4.79,4.79,0,0,1-.79-.31l.77.41a3.32,3.32,0,0,1-1.27-1.17l.28.48a3.36,3.36,0,0,1-.18-3.18l-.25.5a2.59,2.59,0,0,1,.53-.7c.68-.66-.32-1.18-.81-1.38a8.13,8.13,0,0,0-2-.45,15.63,15.63,0,0,0-2.56-.24,27.2,27.2,0,0,0-5.77.39c-1.1.22-2.56.41-3.4,1.22a3.61,3.61,0,0,0-.63,4.33,4.49,4.49,0,0,0,.9,1.22,6.76,6.76,0,0,0,1.68,1,9.81,9.81,0,0,0,2.11.62,29.09,29.09,0,0,0,6.18.43,23.61,23.61,0,0,0,8.24-1.5,7.3,7.3,0,0,0,2.57-1.75,5.23,5.23,0,0,0,1.35-4.79,5.51,5.51,0,0,0-1.6-2.52c-1.5-1.31-3.61-1.64-5.5-1.9a21.78,21.78,0,0,0-2.8-.12,23,23,0,0,0-3,.14,15.53,15.53,0,0,0-2.53.42,8.43,8.43,0,0,0-1.91.58c-.52.29-1.44.79-.71,1.44l.77.41a11.48,11.48,0,0,0,2.71.57Z"/></g></g></svg>