<svg xmlns="http://www.w3.org/2000/svg" viewBox="0 0 159.19 173.8"><defs><style>.cls-1{fill:#79840f;}.cls-2{fill:#fff;}</style></defs><g id="圖層_2" data-name="圖層 2"><g id="圖層_2-2" data-name="圖層 2"><path class="cls-1" d="M16.68,144q24.2.26,48.4.43,20.69.14,41.37.07,14.82,0,29.64-.13c2.38,0-1.75-5-2.13-5.36a24.64,24.64,0,0,0-4.32-3.84c-.94-.63-2.12-1.53-3.31-1.52q-24.19.12-48.4.14-20.69,0-41.37-.23-14.82-.12-29.64-.28c-2.38,0,1.77,5,2.13,5.36a24.64,24.64,0,0,0,4.32,3.84A6.66,6.66,0,0,0,16.68,144Z"/><path class="cls-1" d="M21.72,44.22c-.94,15.33-3.64,30.47-6.71,45.5s-6.33,30.09-9.5,45.14L.07,160.64a6.11,6.11,0,0,0,1.4,4.45,10.22,10.22,0,0,0,4.73,3.36c3,.91,7,.68,7.78-3q4.83-22.87,9.65-45.74c3.16-15,6.52-29.9,9-45a254.68,254.68,0,0,0,3-25.7c.22-3.6-2.82-6.79-6.14-7.81-2.51-.78-7.55-.8-7.78,3Z"/><path class="cls-1" d="M132.11,44.05a683.7,683.7,0,0,0,3,91.18q1.29,12.81,3.05,25.56a13.59,13.59,0,0,0,5.44,8.78c1,.72,2.35,1.7,3.66,1.5a1.84,1.84,0,0,0,1.5-2.14,687.45,687.45,0,0,1-6.48-91.1q0-12.83.38-25.65a9.32,9.32,0,0,0-1.6-4.44,15.2,15.2,0,0,0-3.84-4.34c-1.73-1.24-5.05-2.73-5.16.65Z"/><path class="cls-1" d="M12.72,166.57q27.86,0,55.69.57l5.55.13,1.18,0h0l2.79.07,12.07.27q11.82.27,23.63.43,17.38.23,34.78.21c.77,0,2.39-.3,2.7-1.25s-.87-2.09-1.49-2.57a16.88,16.88,0,0,0-10.11-3.21q-27.86,0-55.7-.57l-5.54-.12-1.19,0,.7,0-.74,0-2.79-.07-12.07-.27q-11.82-.26-23.63-.42c-11.59-.16-23.18-.21-34.78-.22-.77,0-2.4.3-2.7,1.25s.87,2.1,1.49,2.57a16.88,16.88,0,0,0,10.11,3.21Z"/><path class="cls-1" d="M32.74,50.23C47,50,61.2,49.73,75.43,49.78q8.67,0,17.32.2l4.34.1,2.13.05,1,0c.86,0-.15,0-.27,0h.67l9.71.28q13.2.42,26.4.89c.67,0,2.31.22,2.72-.67s-.8-2.06-1.28-2.5a17,17,0,0,0-4.53-2.85,14.6,14.6,0,0,0-5.12-1.55c-14.65-.5-29.3-1-44-1.35-12-.27-24-.31-36-.2q-13.29.12-26.59.38c-.85,0-1.64.49-1.47,1.42s1.78,2.25,2.52,2.76c2.77,1.92,6.28,3.52,9.71,3.46Z"/><path class="cls-1" d="M58.16,67.17a92.81,92.81,0,0,1,9-43,82.07,82.07,0,0,1,6-10.41l-.37.54a46.11,46.11,0,0,1,5.07-6.48,10.49,10.49,0,0,1,2.9-2.21c.14-.06,1.81-.46.82-.29a4,4,0,0,1,1.28-.15l-.69,0H83c.64,0,1.28,0,1.92,0l1,0c1.14,0-.56,0-.64,0,.65,0,1.3.12,2,.16-2.14-.14-1.35-.2-.82-.1,1.42.27-2-.45-.24-.06.92.2-1.74-.58-.44-.13,1.08.37-.38-.12-.36-.16s1.39.9.3.13c.22.15.44.3.65.47a10.6,10.6,0,0,1,2.39,2.71c3.27,4.8,5.66,10.39,7.87,15.74s4.14,11,5.86,16.56c2,6.55,3.76,13.18,5.42,19.83l-.16-.64c.63,2.52,1.25,5,1.86,7.55s4.9,3.19,7,3.53a17.12,17.12,0,0,0,5.34.29c.47-.08,2.64-.35,2.44-1.18-2.66-10.93-5.35-21.87-8.88-32.55-1.71-5.19-3.62-10.31-5.82-15.3q-1.67-3.75-3.55-7.38A34.4,34.4,0,0,0,101.83,8C97.1,2.47,89.2.73,82.26.28,76.16-.11,68.85-.78,64.08,3.81c-3.63,3.48-6.47,8.13-9,12.46A85.38,85.38,0,0,0,48.82,30a93.85,93.85,0,0,0-5.43,34.55c0,1,1.16,1.58,1.88,2a17.33,17.33,0,0,0,5.11,1.58,17.07,17.07,0,0,0,5.33.29c.6-.09,2.47-.28,2.45-1.18Z"/><path class="cls-1" d="M48.25,63.6c-1.31-.23-1.72-.29-1.23-.19l.17,0L46,63.12a5.12,5.12,0,0,1,.77.3L46,63a4.46,4.46,0,0,1,1.69,1.65l-.29-.48a4.3,4.3,0,0,1,.08,4.09l.25-.5a5.4,5.4,0,0,1-1.82,2l.74-.47a5.54,5.54,0,0,1-1,.49l1.16-.41-.24.07c-.62.2,1.35-.28,1.15-.25l-.24,0L49,69.06q2.64-.15,1.68-.12c-.73,0,2.35,0,1.62,0a13.72,13.72,0,0,0,1.43.09c-.55-.06,1.71.31,1.17.18l-.3-.07,1.19.32a4.19,4.19,0,0,1-.79-.31l.77.41a3.32,3.32,0,0,1-1.27-1.17l.28.48a3.36,3.36,0,0,1-.18-3.18l-.25.5a2.59,2.59,0,0,1,.53-.7c.68-.66-.32-1.18-.81-1.38a8.13,8.13,0,0,0-2-.45,15.73,15.73,0,0,0-2.56-.24,27.2,27.2,0,0,0-5.77.39c-1.1.22-2.56.41-3.4,1.22a3.6,3.6,0,0,0-.63,4.33,4.67,4.67,0,0,0,.89,1.22,7,7,0,0,0,1.69,1,9.81,9.81,0,0,0,2.11.62,29,29,0,0,0,6.17.43,23.67,23.67,0,0,0,8.25-1.5,7.3,7.3,0,0,0,2.57-1.75,5.23,5.23,0,0,0,1.35-4.79,5.59,5.59,0,0,0-1.6-2.52c-1.51-1.31-3.61-1.64-5.51-1.9A21.7,21.7,0,0,0,52.91,60a23,23,0,0,0-3,.14,15.65,15.65,0,0,0-2.54.42,8.59,8.59,0,0,0-1.91.58c-.51.29-1.44.79-.7,1.44l.77.41a11.37,11.37,0,0,0,2.71.57Z"/><path class="cls-1" d="M113.25,65.6c-1.31-.23-1.72-.29-1.23-.19l.17,0L111,65.12a5.12,5.12,0,0,1,.77.3L111,65a4.46,4.46,0,0,1,1.69,1.65l-.29-.48a4.3,4.3,0,0,1,.08,4.09l.25-.5a5.4,5.4,0,0,1-1.82,2l.74-.47a5.54,5.54,0,0,1-1,.49l1.16-.41-.24.07c-.62.2,1.35-.28,1.15-.25l-.24,0,1.54-.22q2.64-.15,1.68-.12c-.73,0,2.35,0,1.62,0a13.72,13.72,0,0,0,1.43.09c-.55-.06,1.71.31,1.17.18l-.3-.07,1.19.32a4.19,4.19,0,0,1-.79-.31l.77.41a3.32,3.32,0,0,1-1.27-1.17l.28.48a3.36,3.36,0,0,1-.18-3.18l-.25.5a2.59,2.59,0,0,1,.53-.7c.68-.66-.32-1.18-.81-1.38a8.13,8.13,0,0,0-2-.45,15.73,15.73,0,0,0-2.56-.24,27.2,27.2,0,0,0-5.77.39c-1.1.22-2.56.41-3.4,1.22a3.6,3.6,0,0,0-.63,4.33,4.67,4.67,0,0,0,.89,1.22,7,7,0,0,0,1.69,1,9.81,9.81,0,0,0,2.11.62,29,29,0,0,0,6.17.43,23.67,23.67,0,0,0,8.25-1.5,7.3,7.3,0,0,0,2.57-1.75,5.23,5.23,0,0,0,1.35-4.79,5.59,5.59,0,0,0-1.6-2.52c-1.51-1.31-3.61-1.64-5.51-1.9a21.7,21.7,0,0,0-2.79-.12,23,23,0,0,0-3,.14,15.65,15.65,0,0,0-2.54.42,8.59,8.59,0,0,0-1.91.58c-.51.29-1.44.79-.7,1.44l.77.41a11.37,11.37,0,0,0,2.71.57Z"/><g id="Union_3" data-name="Union 3"><path class="cls-1" d="M131.31,172.17l-1.61,0-12.84-.22-1.6,0,0-1.61.42-23.93H90.14V130.31H116l.42-24.21,0-1.61,1.6,0,12.85.23,1.6,0,0,1.61L132,130.31h25.54v16.05H131.76l-.42,24.2Z"/><path class="cls-2" d="M129.73,170.54l.45-25.78H156V131.92H130.41l.44-25.56L118,106.13l-.44,25.79H91.75v12.84h25.58l-.44,25.56,12.84.22m3.16,3.26-3.21-.05-12.85-.22-3.21-.06.06-3.21.38-22.29H88.54V128.71H114.4l.39-22.64.06-3.21,3.21.06,12.85.23,3.21,0-.06,3.21-.39,22.3h25.52V148H133.34l-.4,22.62Z"/></g></g></g></svg>