<?xml version="1.0" encoding="utf-8"?>
<!-- Generator: Adobe Illustrator 25.0.0, SVG Export Plug-In . SVG Version: 6.00 Build 0)  -->
<svg version="1.1" id="圖層_1" xmlns="http://www.w3.org/2000/svg" xmlns:xlink="http://www.w3.org/1999/xlink" x="0px" y="0px"
	 viewBox="0 0 512 512" style="enable-background:new 0 0 512 512;" xml:space="preserve">
<style type="text/css">
	.st0{fill:#EEEEEE;}
</style>
<g id="圖層_1-2">
	<path class="st0" d="M329.9,419.5c-23.5,0.8-48.3,1.2-73.9,1.2c-73.8,0-139-3.3-174.6-8.9c-38-5.9-53.1-23.6-57.7-67.6
		c-5-48.1-5-123.6,0-171.7c4.6-44,19.7-61.7,57.7-67.6c6.2-1,13.4-1.9,21.5-2.7c5.5-0.5,9.6-5.3,9.1-10.8c-0.5-5.5-5.3-9.6-10.8-9.1
		c-0.1,0-0.3,0-0.4,0c-8.5,0.9-16.1,1.8-22.6,2.9c-23.7,3.7-40.3,11.6-52.3,25c-12.3,13.8-19.4,33-22.2,60.3
		c-5.2,49.3-5.2,126.6,0,175.9c2.9,27.4,9.9,46.5,22.2,60.3c12,13.4,28.6,21.3,52.3,25c36.5,5.7,102.9,9.1,177.6,9.1
		c25.7,0,50.8-0.4,74.5-1.2c5.5-0.2,9.9-4.8,9.7-10.3C340,423.6,335.4,419.3,329.9,419.5L329.9,419.5z"/>
	<path class="st0" d="M508.1,170.4c-2.9-27.3-9.9-46.5-22.2-60.3c-12-13.4-28.6-21.3-52.3-25C397.1,79.4,330.7,76,256,76
		c-25.7,0-50.8,0.4-74.5,1.2c-5.5,0.2-9.8,4.8-9.7,10.3s4.8,9.8,10.3,9.7c23.5-0.8,48.3-1.2,73.8-1.2c73.7,0,139,3.3,174.5,8.9
		c38,5.9,53.1,23.6,57.7,67.6c5,48.1,5,123.6,0,171.7c-4.6,44-19.7,61.7-57.7,67.6c-6.2,1-13.4,1.9-21.5,2.7
		c-5.5,0.6-9.5,5.5-9,10.9c0.5,5.1,4.8,9,10,9c0.3,0,0.7,0,1,0c8.5-0.9,16.1-1.8,22.6-2.9c23.7-3.7,40.3-11.6,52.3-25
		c12.3-13.8,19.4-32.9,22.2-60.3C513.3,297,513.3,219.7,508.1,170.4z"/>
	<path class="st0" d="M338.4,249.8l-123.8-76.5c-4.7-2.9-10.9-1.5-13.8,3.2c-1,1.6-1.5,3.4-1.5,5.3v152.9c0,5.5,4.5,10,10,10
		c1.9,0,3.7-0.5,5.3-1.5l123.8-76.5c4.7-2.9,6.1-9.1,3.2-13.8C340.8,251.8,339.7,250.7,338.4,249.8L338.4,249.8z M219.4,316.8v-117
		l94.8,58.5L219.4,316.8z"/>
	<path class="st0" d="M141.8,99h0.7c5.5-0.4,9.7-5.1,9.3-10.7c-0.4-5.5-5.1-9.7-10.7-9.3c0,0,0,0,0,0l0,0c-5.5,0.2-9.9,4.8-9.7,10.3
		S136.3,99.2,141.8,99L141.8,99z"/>
	<path class="st0" d="M369.5,417.7c-5.5,0.2-9.9,4.8-9.7,10.3c0.2,5.5,4.8,9.9,10.3,9.7h0.7l0,0c5.5-0.4,9.7-5.1,9.3-10.7
		C379.8,421.5,375,417.3,369.5,417.7L369.5,417.7z"/>
</g>
</svg>
